<ttFont>
<head>
    <!-- Most of this table will be recalculated by the compiler -->
    <tableVersion value="1.0"/>
    <fontRevision value="1.002"/>
    <checkSumAdjustment value="0xfbaa2081"/>
    <magicNumber value="0x5f0f3cf5"/>
    <flags value="00000000 00000011"/>
    <unitsPerEm value="1000"/>
    <created value="Thu Jun 27 04:53:14 2024"/>
    <modified value="Thu Jun 27 04:53:14 2024"/>
    <xMin value="0"/>
    <yMin value="-200"/>
    <xMax value="559"/>
    <yMax value="800"/>
    <macStyle value="00000000 00000000"/>
    <lowestRecPPEM value="6"/>
    <fontDirectionHint value="2"/>
    <indexToLocFormat value="0"/>
    <glyphDataFormat value="0"/>
  </head>
    <TTGlyph name=".notdef" xMin="50" yMin="-200" xMax="450" yMax="800">
      <contour>
        <pt x="50" y="-200" on="1"/>
        <pt x="50" y="800" on="1"/>
        <pt x="450" y="800" on="1"/>
        <pt x="450" y="-200" on="1"/>
      </contour>
      <contour>
        <pt x="100" y="-150" on="1"/>
        <pt x="400" y="-150" on="1"/>
        <pt x="400" y="750" on="1"/>
        <pt x="100" y="750" on="1"/>
      </contour>
    </TTGlyph>
    <TTGlyph name="A" xMin="20" yMin="0" xMax="376" yMax="700">
      <contour>
        <pt x="20" y="0" on="1"/>
        <pt x="165" y="700" on="1"/>
        <pt x="200" y="700" on="1"/>
        <pt x="60" y="0" on="1"/>
      </contour>
      <contour>
        <pt x="75" y="164" on="1"/>
        <pt x="75" y="200" on="1"/>
        <pt x="325" y="200" on="1"/>
        <pt x="325" y="164" on="1"/>
      </contour>
      <contour>
        <pt x="332" y="0" on="1"/>
        <pt x="192" y="700" on="1"/>
        <pt x="231" y="700" on="1"/>
        <pt x="376" y="0" on="1"/>
      </contour>
      <contour>
        <pt x="175" y="661" on="1"/>
        <pt x="175" y="700" on="1"/>
        <pt x="222" y="700" on="1"/>
        <pt x="222" y="661" on="1"/>
      </contour>
    </TTGlyph>
    <TTGlyph name="Aacute" xMin="20" yMin="0" xMax="376" yMax="790">
      <component glyphName="A" x="0" y="0" flags="0x204"/>
      <component glyphName="acute" x="99" y="20" flags="0x4"/>
    </TTGlyph>
    <TTGlyph name="Adieresis" xMin="20" yMin="0" xMax="376" yMax="800">
      <component glyphName="A" x="0" y="0" flags="0x204"/>
      <component glyphName="dot" x="89" y="10" flags="0x4"/>
      <component glyphName="dot" x="169" y="10" flags="0x4"/>
    </TTGlyph>
    <TTGlyph name="B" xMin="60" yMin="0" xMax="403" yMax="700">
      <contour>
        <pt x="60" y="0" on="1"/>
        <pt x="60" y="700" on="1"/>
        <pt x="100" y="700" on="1"/>
        <pt x="100" y="0" on="1"/>
      </contour>
      <contour>
        <pt x="80" y="333" on="1"/>
        <pt x="80" y="368" on="1"/>
        <pt x="190" y="368" on="1"/>
        <pt x="243" y="368" on="0"/>
        <pt x="311" y="407" on="0"/>
        <pt x="344" y="474" on="0"/>
        <pt x="344" y="517" on="1"/>
        <pt x="344" y="560" on="0"/>
        <pt x="317" y="626" on="0"/>
        <pt x="250" y="664" on="0"/>
        <pt x="190" y="664" on="1"/>
        <pt x="80" y="664" on="1"/>
        <pt x="80" y="700" on="1"/>
        <pt x="180" y="700" on="1"/>
        <pt x="261" y="700" on="0"/>
        <pt x="349" y="651" on="0"/>
        <pt x="383" y="568" on="0"/>
        <pt x="383" y="517" on="1"/>
        <pt x="383" y="478" on="0"/>
        <pt x="355" y="408" on="0"/>
        <pt x="298" y="358" on="0"/>
        <pt x="253" y="350" on="1"/>
        <pt x="233" y="361" on="1"/>
        <pt x="293" y="356" on="0"/>
        <pt x="368" y="305" on="0"/>
        <pt x="403" y="228" on="0"/>
        <pt x="403" y="183" on="1"/>
        <pt x="403" y="144" on="0"/>
        <pt x="379" y="77" on="0"/>
        <pt x="328" y="28" on="0"/>
        <pt x="247" y="0" on="0"/>
        <pt x="190" y="0" on="1"/>
        <pt x="80" y="0" on="1"/>
        <pt x="80" y="36" on="1"/>
        <pt x="200" y="36" on="1"/>
        <pt x="284" y="36" on="0"/>
        <pt x="364" y="116" on="0"/>
        <pt x="364" y="183" on="1"/>
        <pt x="364" y="248" on="0"/>
        <pt x="289" y="333" on="0"/>
        <pt x="210" y="333" on="1"/>
      </contour>
    </TTGlyph>
    <TTGlyph name="C" xMin="50" yMin="-10" xMax="449" yMax="710">
      <contour>
        <pt x="410" y="264" on="1"/>
        <pt x="449" y="258" on="1"/>
        <pt x="441" y="161" on="0"/>
        <pt x="390" y="43" on="0"/>
        <pt x="310" y="-10" on="0"/>
        <pt x="257" y="-10" on="1"/>
        <pt x="246" y="-10" on="1"/>
        <pt x="186" y="-10" on="0"/>
        <pt x="98" y="61" on="0"/>
        <pt x="50" y="220" on="0"/>
        <pt x="50" y="352" on="1"/>
        <pt x="50" y="484" on="0"/>
        <pt x="98" y="641" on="0"/>
        <pt x="186" y="710" on="0"/>
        <pt x="246" y="710" on="1"/>
        <pt x="257" y="710" on="1"/>
        <pt x="309" y="710" on="0"/>
        <pt x="389" y="658" on="0"/>
        <pt x="441" y="543" on="0"/>
        <pt x="449" y="447" on="1"/>
        <pt x="410" y="442" on="1"/>
        <pt x="403" y="530" on="0"/>
        <pt x="362" y="631" on="0"/>
        <pt x="298" y="674" on="0"/>
        <pt x="257" y="674" on="1"/>
        <pt x="246" y="674" on="1"/>
        <pt x="199" y="674" on="0"/>
        <pt x="130" y="616" on="0"/>
        <pt x="92" y="476" on="0"/>
        <pt x="92" y="352" on="1"/>
        <pt x="92" y="228" on="0"/>
        <pt x="130" y="86" on="0"/>
        <pt x="199" y="26" on="0"/>
        <pt x="246" y="26" on="1"/>
        <pt x="257" y="26" on="1"/>
        <pt x="299" y="26" on="0"/>
        <pt x="363" y="70" on="0"/>
        <pt x="404" y="175" on="0"/>
      </contour>
    </TTGlyph>
    <TTGlyph name="D" xMin="60" yMin="0" xMax="443" yMax="700">
      <contour>
        <pt x="60" y="0" on="1"/>
        <pt x="60" y="700" on="1"/>
        <pt x="100" y="700" on="1"/>
        <pt x="100" y="0" on="1"/>
      </contour>
      <contour>
        <pt x="86" y="664" on="1"/>
        <pt x="86" y="700" on="1"/>
        <pt x="207" y="700" on="1"/>
        <pt x="276" y="700" on="0"/>
        <pt x="383" y="636" on="0"/>
        <pt x="443" y="484" on="0"/>
        <pt x="443" y="352" on="1"/>
        <pt x="443" y="220" on="0"/>
        <pt x="383" y="66" on="0"/>
        <pt x="276" y="0" on="0"/>
        <pt x="207" y="0" on="1"/>
        <pt x="86" y="0" on="1"/>
        <pt x="86" y="36" on="1"/>
        <pt x="207" y="36" on="1"/>
        <pt x="264" y="36" on="0"/>
        <pt x="351" y="91" on="0"/>
        <pt x="401" y="228" on="0"/>
        <pt x="401" y="352" on="1"/>
        <pt x="401" y="476" on="0"/>
        <pt x="351" y="611" on="0"/>
        <pt x="264" y="664" on="0"/>
        <pt x="207" y="664" on="1"/>
      </contour>
    </TTGlyph>
    <TTGlyph name="E" xMin="60" yMin="0" xMax="340" yMax="700">
      <contour>
        <pt x="60" y="0" on="1"/>
        <pt x="60" y="700" on="1"/>
        <pt x="100" y="700" on="1"/>
        <pt x="100" y="0" on="1"/>
      </contour>
      <contour>
        <pt x="80" y="664" on="1"/>
        <pt x="80" y="700" on="1"/>
        <pt x="340" y="700" on="1"/>
        <pt x="340" y="664" on="1"/>
      </contour>
      <contour>
        <pt x="80" y="0" on="1"/>
        <pt x="80" y="36" on="1"/>
        <pt x="340" y="36" on="1"/>
        <pt x="340" y="0" on="1"/>
      </contour>
      <contour>
        <pt x="80" y="334" on="1"/>
        <pt x="80" y="370" on="1"/>
        <pt x="320" y="370" on="1"/>
        <pt x="320" y="334" on="1"/>
      </contour>
    </TTGlyph>
    <TTGlyph name="F" xMin="60" yMin="0" xMax="340" yMax="700">
      <contour>
        <pt x="60" y="0" on="1"/>
        <pt x="60" y="700" on="1"/>
        <pt x="100" y="700" on="1"/>
        <pt x="100" y="0" on="1"/>
      </contour>
      <contour>
        <pt x="80" y="664" on="1"/>
        <pt x="80" y="700" on="1"/>
        <pt x="340" y="700" on="1"/>
        <pt x="340" y="664" on="1"/>
      </contour>
      <contour>
        <pt x="80" y="314" on="1"/>
        <pt x="80" y="350" on="1"/>
        <pt x="320" y="350" on="1"/>
        <pt x="320" y="314" on="1"/>
      </contour>
    </TTGlyph>
    <TTGlyph name="G" xMin="50" yMin="-10" xMax="449" yMax="710">
      <contour>
        <pt x="250" y="300" on="1"/>
        <pt x="250" y="335" on="1"/>
        <pt x="446" y="335" on="1"/>
        <pt x="446" y="0" on="1"/>
        <pt x="418" y="0" on="1"/>
        <pt x="409" y="216" on="1"/>
        <pt x="409" y="300" on="1"/>
      </contour>
      <contour>
        <pt x="410" y="284" on="1"/>
        <pt x="426" y="278" on="1"/>
        <pt x="423" y="171" on="0"/>
        <pt x="383" y="45" on="0"/>
        <pt x="310" y="-10" on="0"/>
        <pt x="257" y="-10" on="1"/>
        <pt x="246" y="-10" on="1"/>
        <pt x="186" y="-10" on="0"/>
        <pt x="98" y="61" on="0"/>
        <pt x="50" y="220" on="0"/>
        <pt x="50" y="352" on="1"/>
        <pt x="50" y="484" on="0"/>
        <pt x="102" y="641" on="0"/>
        <pt x="195" y="710" on="0"/>
        <pt x="255" y="710" on="1"/>
        <pt x="266" y="710" on="1"/>
        <pt x="318" y="710" on="0"/>
        <pt x="394" y="658" on="0"/>
        <pt x="441" y="543" on="0"/>
        <pt x="449" y="447" on="1"/>
        <pt x="410" y="442" on="1"/>
        <pt x="403" y="530" on="0"/>
        <pt x="366" y="631" on="0"/>
        <pt x="307" y="674" on="0"/>
        <pt x="266" y="674" on="1"/>
        <pt x="255" y="674" on="1"/>
        <pt x="208" y="674" on="0"/>
        <pt x="133" y="616" on="0"/>
        <pt x="90" y="476" on="0"/>
        <pt x="90" y="352" on="1"/>
        <pt x="90" y="228" on="0"/>
        <pt x="129" y="86" on="0"/>
        <pt x="199" y="26" on="0"/>
        <pt x="246" y="26" on="1"/>
        <pt x="257" y="26" on="1"/>
        <pt x="299" y="26" on="0"/>
        <pt x="363" y="72" on="0"/>
        <pt x="404" y="185" on="0"/>
      </contour>
    </TTGlyph>
    <TTGlyph name="H" xMin="60" yMin="0" xMax="400" yMax="700">
      <contour>
        <pt x="60" y="0" on="1"/>
        <pt x="60" y="700" on="1"/>
        <pt x="100" y="700" on="1"/>
        <pt x="100" y="0" on="1"/>
      </contour>
      <contour>
        <pt x="80" y="334" on="1"/>
        <pt x="80" y="370" on="1"/>
        <pt x="380" y="370" on="1"/>
        <pt x="380" y="334" on="1"/>
      </contour>
      <contour>
        <pt x="360" y="0" on="1"/>
        <pt x="360" y="700" on="1"/>
        <pt x="400" y="700" on="1"/>
        <pt x="400" y="0" on="1"/>
      </contour>
    </TTGlyph>
    <TTGlyph name="I" xMin="60" yMin="0" xMax="260" yMax="700">
      <contour>
        <pt x="140" y="0" on="1"/>
        <pt x="140" y="700" on="1"/>
        <pt x="180" y="700" on="1"/>
        <pt x="180" y="0" on="1"/>
      </contour>
      <contour>
        <pt x="60" y="664" on="1"/>
        <pt x="60" y="700" on="1"/>
        <pt x="260" y="700" on="1"/>
        <pt x="260" y="664" on="1"/>
      </contour>
      <contour>
        <pt x="60" y="0" on="1"/>
        <pt x="60" y="36" on="1"/>
        <pt x="260" y="36" on="1"/>
        <pt x="260" y="0" on="1"/>
      </contour>
    </TTGlyph>
    <TTGlyph name="I.narrow" xMin="60" yMin="0" xMax="100" yMax="700">
      <contour>
        <pt x="60" y="0" on="1"/>
        <pt x="60" y="700" on="1"/>
        <pt x="100" y="700" on="1"/>
        <pt x="100" y="0" on="1"/>
      </contour>
    </TTGlyph>
    <TTGlyph name="IJ" xMin="60" yMin="-10" xMax="403" yMax="700">
      <contour>
        <pt x="100" y="320" on="1"/>
        <pt x="60" y="320" on="1"/>
        <pt x="60" y="700" on="1"/>
        <pt x="100" y="700" on="1"/>
      </contour>
      <contour>
        <pt x="232" y="-10" on="1"/>
        <pt x="178" y="-10" on="0"/>
        <pt x="101" y="26" on="0"/>
        <pt x="60" y="110" on="0"/>
        <pt x="60" y="182" on="1"/>
        <pt x="60" y="240" on="1"/>
        <pt x="100" y="240" on="1"/>
        <pt x="100" y="182" on="1"/>
        <pt x="100" y="121" on="0"/>
        <pt x="132" y="53" on="0"/>
        <pt x="192" y="26" on="0"/>
        <pt x="232" y="26" on="1"/>
        <pt x="273" y="26" on="0"/>
        <pt x="331" y="53" on="0"/>
        <pt x="363" y="121" on="0"/>
        <pt x="363" y="182" on="1"/>
        <pt x="363" y="700" on="1"/>
        <pt x="403" y="700" on="1"/>
        <pt x="403" y="182" on="1"/>
        <pt x="403" y="110" on="0"/>
        <pt x="362" y="26" on="0"/>
        <pt x="285" y="-10" on="0"/>
      </contour>
    </TTGlyph>
    <TTGlyph name="J" xMin="60" yMin="-10" xMax="403" yMax="700">
      <contour>
        <pt x="232" y="-10" on="1"/>
        <pt x="178" y="-10" on="0"/>
        <pt x="101" y="26" on="0"/>
        <pt x="60" y="110" on="0"/>
        <pt x="60" y="182" on="1"/>
        <pt x="60" y="280" on="1"/>
        <pt x="100" y="280" on="1"/>
        <pt x="100" y="182" on="1"/>
        <pt x="100" y="121" on="0"/>
        <pt x="132" y="53" on="0"/>
        <pt x="192" y="26" on="0"/>
        <pt x="232" y="26" on="1"/>
        <pt x="273" y="26" on="0"/>
        <pt x="331" y="53" on="0"/>
        <pt x="363" y="121" on="0"/>
        <pt x="363" y="182" on="1"/>
        <pt x="363" y="700" on="1"/>
        <pt x="403" y="700" on="1"/>
        <pt x="403" y="182" on="1"/>
        <pt x="403" y="110" on="0"/>
        <pt x="362" y="26" on="0"/>
        <pt x="285" y="-10" on="0"/>
      </contour>
    </TTGlyph>
    <TTGlyph name="J.narrow" xMin="60" yMin="-10" xMax="323" yMax="700">
      <contour>
        <pt x="122" y="-10" on="1"/>
        <pt x="106" y="-10" on="0"/>
        <pt x="74" y="-7" on="0"/>
        <pt x="60" y="-3" on="1"/>
        <pt x="72" y="32" on="1"/>
        <pt x="83" y="29" on="0"/>
        <pt x="109" y="26" on="0"/>
        <pt x="122" y="26" on="1"/>
        <pt x="172" y="26" on="0"/>
        <pt x="244" y="60" on="0"/>
        <pt x="283" y="145" on="0"/>
        <pt x="283" y="222" on="1"/>
        <pt x="283" y="700" on="1"/>
        <pt x="323" y="700" on="1"/>
        <pt x="323" y="222" on="1"/>
        <pt x="323" y="135" on="0"/>
        <pt x="275" y="34" on="0"/>
        <pt x="185" y="-10" on="0"/>
      </contour>
    </TTGlyph>
    <TTGlyph name="K" xMin="60" yMin="0" xMax="407" yMax="700">
      <contour>
        <pt x="60" y="0" on="1"/>
        <pt x="60" y="700" on="1"/>
        <pt x="100" y="700" on="1"/>
        <pt x="100" y="0" on="1"/>
      </contour>
      <contour>
        <pt x="74" y="334" on="1"/>
        <pt x="74" y="370" on="1"/>
        <pt x="154" y="370" on="1"/>
        <pt x="160" y="370" on="1"/>
        <pt x="407" y="0" on="1"/>
        <pt x="358" y="0" on="1"/>
        <pt x="145" y="334" on="1"/>
      </contour>
      <contour>
        <pt x="124" y="353" on="1"/>
        <pt x="353" y="700" on="1"/>
        <pt x="399" y="700" on="1"/>
        <pt x="151" y="338" on="1"/>
      </contour>
    </TTGlyph>
    <TTGlyph name="L" xMin="60" yMin="0" xMax="340" yMax="700">
      <contour>
        <pt x="60" y="0" on="1"/>
        <pt x="60" y="700" on="1"/>
        <pt x="100" y="700" on="1"/>
        <pt x="100" y="0" on="1"/>
      </contour>
      <contour>
        <pt x="80" y="0" on="1"/>
        <pt x="80" y="36" on="1"/>
        <pt x="340" y="36" on="1"/>
        <pt x="340" y="0" on="1"/>
      </contour>
    </TTGlyph>
    <TTGlyph name="M" xMin="60" yMin="0" xMax="470" yMax="700">
      <contour>
        <pt x="60" y="0" on="1"/>
        <pt x="60" y="700" on="1"/>
        <pt x="100" y="700" on="1"/>
        <pt x="100" y="0" on="1"/>
      </contour>
      <contour>
        <pt x="470" y="0" on="1"/>
        <pt x="430" y="0" on="1"/>
        <pt x="430" y="700" on="1"/>
        <pt x="470" y="700" on="1"/>
      </contour>
      <contour>
        <pt x="453" y="658" on="1"/>
        <pt x="278" y="299" on="1"/>
        <pt x="253" y="299" on="1"/>
        <pt x="78" y="651" on="1"/>
        <pt x="100" y="700" on="1"/>
        <pt x="277" y="342" on="1"/>
        <pt x="260" y="342" on="1"/>
        <pt x="430" y="700" on="1"/>
      </contour>
    </TTGlyph>
    <TTGlyph name="N" xMin="60" yMin="0" xMax="400" yMax="700">
      <contour>
        <pt x="60" y="0" on="1"/>
        <pt x="60" y="700" on="1"/>
        <pt x="95" y="700" on="1"/>
        <pt x="95" y="0" on="1"/>
      </contour>
      <contour>
        <pt x="76" y="646" on="1"/>
        <pt x="95" y="700" on="1"/>
        <pt x="384" y="54" on="1"/>
        <pt x="365" y="0" on="1"/>
      </contour>
      <contour>
        <pt x="365" y="0" on="1"/>
        <pt x="365" y="700" on="1"/>
        <pt x="400" y="700" on="1"/>
        <pt x="400" y="0" on="1"/>
      </contour>
    </TTGlyph>
    <TTGlyph name="O" xMin="50" yMin="-10" xMax="453" yMax="710">
      <contour>
        <pt x="246" y="-10" on="1"/>
        <pt x="186" y="-10" on="0"/>
        <pt x="98" y="61" on="0"/>
        <pt x="50" y="220" on="0"/>
        <pt x="50" y="352" on="1"/>
        <pt x="50" y="484" on="0"/>
        <pt x="98" y="641" on="0"/>
        <pt x="186" y="710" on="0"/>
        <pt x="246" y="710" on="1"/>
        <pt x="257" y="710" on="1"/>
        <pt x="317" y="710" on="0"/>
        <pt x="405" y="641" on="0"/>
        <pt x="453" y="484" on="0"/>
        <pt x="453" y="352" on="1"/>
        <pt x="453" y="220" on="0"/>
        <pt x="405" y="61" on="0"/>
        <pt x="317" y="-10" on="0"/>
        <pt x="257" y="-10" on="1"/>
      </contour>
      <contour>
        <pt x="246" y="26" on="1"/>
        <pt x="257" y="26" on="1"/>
        <pt x="305" y="26" on="0"/>
        <pt x="374" y="86" on="0"/>
        <pt x="411" y="228" on="0"/>
        <pt x="411" y="352" on="1"/>
        <pt x="411" y="476" on="0"/>
        <pt x="374" y="616" on="0"/>
        <pt x="305" y="674" on="0"/>
        <pt x="257" y="674" on="1"/>
        <pt x="246" y="674" on="1"/>
        <pt x="199" y="674" on="0"/>
        <pt x="130" y="616" on="0"/>
        <pt x="92" y="476" on="0"/>
        <pt x="92" y="352" on="1"/>
        <pt x="92" y="228" on="0"/>
        <pt x="130" y="86" on="0"/>
        <pt x="199" y="26" on="0"/>
      </contour>
    </TTGlyph>
    <TTGlyph name="P" xMin="60" yMin="0" xMax="393" yMax="700">
      <contour>
        <pt x="60" y="0" on="1"/>
        <pt x="60" y="700" on="1"/>
        <pt x="100" y="700" on="1"/>
        <pt x="100" y="0" on="1"/>
      </contour>
      <contour>
        <pt x="80" y="660" on="1"/>
        <pt x="80" y="700" on="1"/>
        <pt x="170" y="700" on="1"/>
        <pt x="230" y="700" on="0"/>
        <pt x="315" y="658" on="0"/>
        <pt x="368" y="585" on="0"/>
        <pt x="393" y="488" on="0"/>
        <pt x="393" y="432" on="1"/>
        <pt x="393" y="377" on="0"/>
        <pt x="368" y="281" on="0"/>
        <pt x="315" y="207" on="0"/>
        <pt x="230" y="165" on="0"/>
        <pt x="170" y="165" on="1"/>
        <pt x="80" y="165" on="1"/>
        <pt x="80" y="205" on="1"/>
        <pt x="180" y="205" on="1"/>
        <pt x="225" y="205" on="0"/>
        <pt x="290" y="238" on="0"/>
        <pt x="333" y="299" on="0"/>
        <pt x="354" y="382" on="0"/>
        <pt x="354" y="432" on="1"/>
        <pt x="354" y="482" on="0"/>
        <pt x="333" y="565" on="0"/>
        <pt x="290" y="626" on="0"/>
        <pt x="225" y="660" on="0"/>
        <pt x="180" y="660" on="1"/>
      </contour>
    </TTGlyph>
    <TTGlyph name="Q" xMin="50" yMin="-130" xMax="453" yMax="710">
      <contour>
        <pt x="330" y="-130" on="1"/>
        <pt x="243" y="-5" on="1"/>
        <pt x="275" y="13" on="1"/>
        <pt x="374" y="-130" on="1"/>
      </contour>
      <contour>
        <pt x="246" y="-10" on="1"/>
        <pt x="186" y="-10" on="0"/>
        <pt x="98" y="61" on="0"/>
        <pt x="50" y="220" on="0"/>
        <pt x="50" y="352" on="1"/>
        <pt x="50" y="484" on="0"/>
        <pt x="98" y="641" on="0"/>
        <pt x="186" y="710" on="0"/>
        <pt x="246" y="710" on="1"/>
        <pt x="257" y="710" on="1"/>
        <pt x="317" y="710" on="0"/>
        <pt x="405" y="641" on="0"/>
        <pt x="453" y="484" on="0"/>
        <pt x="453" y="352" on="1"/>
        <pt x="453" y="220" on="0"/>
        <pt x="405" y="61" on="0"/>
        <pt x="317" y="-10" on="0"/>
        <pt x="257" y="-10" on="1"/>
      </contour>
      <contour>
        <pt x="246" y="26" on="1"/>
        <pt x="257" y="26" on="1"/>
        <pt x="305" y="26" on="0"/>
        <pt x="374" y="86" on="0"/>
        <pt x="411" y="228" on="0"/>
        <pt x="411" y="352" on="1"/>
        <pt x="411" y="476" on="0"/>
        <pt x="374" y="616" on="0"/>
        <pt x="305" y="674" on="0"/>
        <pt x="257" y="674" on="1"/>
        <pt x="246" y="674" on="1"/>
        <pt x="199" y="674" on="0"/>
        <pt x="130" y="616" on="0"/>
        <pt x="92" y="476" on="0"/>
        <pt x="92" y="352" on="1"/>
        <pt x="92" y="228" on="0"/>
        <pt x="130" y="86" on="0"/>
        <pt x="199" y="26" on="0"/>
      </contour>
    </TTGlyph>
    <TTGlyph name="R" xMin="60" yMin="0" xMax="394" yMax="700">
      <contour>
        <pt x="350" y="0" on="1"/>
        <pt x="213" y="195" on="1"/>
        <pt x="232" y="195" on="1"/>
        <pt x="243" y="195" on="0"/>
        <pt x="261" y="183" on="0"/>
        <pt x="284" y="156" on="0"/>
        <pt x="300" y="132" on="1"/>
        <pt x="394" y="0" on="1"/>
      </contour>
      <contour>
        <pt x="60" y="0" on="1"/>
        <pt x="60" y="700" on="1"/>
        <pt x="100" y="700" on="1"/>
        <pt x="100" y="0" on="1"/>
      </contour>
      <contour>
        <pt x="80" y="660" on="1"/>
        <pt x="80" y="700" on="1"/>
        <pt x="170" y="700" on="1"/>
        <pt x="230" y="700" on="0"/>
        <pt x="315" y="658" on="0"/>
        <pt x="368" y="585" on="0"/>
        <pt x="393" y="488" on="0"/>
        <pt x="393" y="432" on="1"/>
        <pt x="393" y="377" on="0"/>
        <pt x="368" y="281" on="0"/>
        <pt x="315" y="207" on="0"/>
        <pt x="230" y="165" on="0"/>
        <pt x="170" y="165" on="1"/>
        <pt x="80" y="165" on="1"/>
        <pt x="80" y="205" on="1"/>
        <pt x="180" y="205" on="1"/>
        <pt x="225" y="205" on="0"/>
        <pt x="290" y="238" on="0"/>
        <pt x="333" y="299" on="0"/>
        <pt x="354" y="382" on="0"/>
        <pt x="354" y="432" on="1"/>
        <pt x="354" y="482" on="0"/>
        <pt x="333" y="565" on="0"/>
        <pt x="290" y="626" on="0"/>
        <pt x="225" y="660" on="0"/>
        <pt x="180" y="660" on="1"/>
      </contour>
    </TTGlyph>
    <TTGlyph name="R.alt" xMin="60" yMin="0" xMax="394" yMax="700">
      <contour>
        <pt x="350" y="0" on="1"/>
        <pt x="213" y="195" on="1"/>
        <pt x="232" y="195" on="1"/>
        <pt x="249" y="195" on="0"/>
        <pt x="275" y="167" on="0"/>
        <pt x="300" y="132" on="1"/>
        <pt x="394" y="0" on="1"/>
      </contour>
      <contour>
        <pt x="60" y="0" on="1"/>
        <pt x="60" y="700" on="1"/>
        <pt x="100" y="700" on="1"/>
        <pt x="100" y="0" on="1"/>
      </contour>
      <contour>
        <pt x="80" y="660" on="1"/>
        <pt x="80" y="700" on="1"/>
        <pt x="170" y="700" on="1"/>
        <pt x="250" y="700" on="0"/>
        <pt x="348" y="628" on="0"/>
        <pt x="393" y="506" on="0"/>
        <pt x="393" y="432" on="1"/>
        <pt x="393" y="359" on="0"/>
        <pt x="348" y="238" on="0"/>
        <pt x="250" y="165" on="0"/>
        <pt x="170" y="165" on="1"/>
        <pt x="80" y="165" on="1"/>
        <pt x="80" y="205" on="1"/>
        <pt x="180" y="205" on="1"/>
        <pt x="240" y="205" on="0"/>
        <pt x="317" y="263" on="0"/>
        <pt x="354" y="366" on="0"/>
        <pt x="354" y="432" on="1"/>
        <pt x="354" y="499" on="0"/>
        <pt x="317" y="601" on="0"/>
        <pt x="240" y="660" on="0"/>
        <pt x="180" y="660" on="1"/>
      </contour>
    </TTGlyph>
    <TTGlyph name="S" xMin="20" yMin="-10" xMax="365" yMax="711">
      <contour>
        <pt x="349" y="157" on="1"/>
        <pt x="349" y="121" on="0"/>
        <pt x="328" y="61" on="0"/>
        <pt x="284" y="15" on="0"/>
        <pt x="217" y="-10" on="0"/>
        <pt x="173" y="-10" on="1"/>
        <pt x="166" y="-10" on="1"/>
        <pt x="141" y="-10" on="0"/>
        <pt x="100" y="-4" on="0"/>
        <pt x="66" y="6" on="0"/>
        <pt x="35" y="20" on="0"/>
        <pt x="20" y="27" on="1"/>
        <pt x="37" y="64" on="1"/>
        <pt x="69" y="45" on="0"/>
        <pt x="136" y="28" on="0"/>
        <pt x="176" y="28" on="1"/>
        <pt x="184" y="28" on="1"/>
        <pt x="226" y="28" on="0"/>
        <pt x="282" y="60" on="0"/>
        <pt x="311" y="113" on="0"/>
        <pt x="311" y="144" on="1"/>
        <pt x="311" y="176" on="0"/>
        <pt x="296" y="225" on="0"/>
        <pt x="258" y="273" on="0"/>
        <pt x="222" y="301" on="1"/>
        <pt x="172" y="341" on="1"/>
        <pt x="141" y="365" on="0"/>
        <pt x="94" y="412" on="0"/>
        <pt x="62" y="461" on="0"/>
        <pt x="46" y="514" on="0"/>
        <pt x="46" y="544" on="1"/>
        <pt x="46" y="595" on="0"/>
        <pt x="85" y="670" on="0"/>
        <pt x="163" y="711" on="0"/>
        <pt x="222" y="711" on="1"/>
        <pt x="229" y="711" on="1"/>
        <pt x="252" y="711" on="0"/>
        <pt x="290" y="706" on="0"/>
        <pt x="322" y="696" on="0"/>
        <pt x="351" y="684" on="0"/>
        <pt x="365" y="677" on="1"/>
        <pt x="348" y="640" on="1"/>
        <pt x="318" y="658" on="0"/>
        <pt x="256" y="673" on="0"/>
        <pt x="219" y="673" on="1"/>
        <pt x="211" y="673" on="1"/>
        <pt x="149" y="673" on="0"/>
        <pt x="84" y="608" on="0"/>
        <pt x="84" y="546" on="1"/>
        <pt x="84" y="520" on="0"/>
        <pt x="100" y="471" on="0"/>
        <pt x="136" y="423" on="0"/>
        <pt x="167" y="398" on="1"/>
        <pt x="217" y="358" on="1"/>
        <pt x="248" y="334" on="0"/>
        <pt x="296" y="287" on="0"/>
        <pt x="330" y="240" on="0"/>
        <pt x="349" y="187" on="0"/>
      </contour>
    </TTGlyph>
    <TTGlyph name="S.closed" xMin="40" yMin="-10" xMax="358" yMax="711">
      <contour>
        <pt x="358" y="157" on="1"/>
        <pt x="358" y="121" on="0"/>
        <pt x="339" y="61" on="0"/>
        <pt x="300" y="15" on="0"/>
        <pt x="240" y="-10" on="0"/>
        <pt x="201" y="-10" on="1"/>
        <pt x="194" y="-10" on="1"/>
        <pt x="160" y="-10" on="0"/>
        <pt x="103" y="11" on="0"/>
        <pt x="62" y="62" on="0"/>
        <pt x="40" y="152" on="0"/>
        <pt x="40" y="222" on="1"/>
        <pt x="80" y="222" on="1"/>
        <pt x="80" y="174" on="0"/>
        <pt x="90" y="101" on="0"/>
        <pt x="116" y="53" on="0"/>
        <pt x="165" y="28" on="0"/>
        <pt x="204" y="28" on="1"/>
        <pt x="212" y="28" on="1"/>
        <pt x="248" y="28" on="0"/>
        <pt x="296" y="60" on="0"/>
        <pt x="320" y="113" on="0"/>
        <pt x="320" y="144" on="1"/>
        <pt x="320" y="176" on="0"/>
        <pt x="306" y="227" on="0"/>
        <pt x="268" y="276" on="0"/>
        <pt x="231" y="301" on="1"/>
        <pt x="173" y="341" on="1"/>
        <pt x="131" y="370" on="0"/>
        <pt x="75" y="433" on="0"/>
        <pt x="48" y="504" on="0"/>
        <pt x="47" y="544" on="1"/>
        <pt x="47" y="592" on="0"/>
        <pt x="77" y="667" on="0"/>
        <pt x="143" y="711" on="0"/>
        <pt x="195" y="711" on="1"/>
        <pt x="202" y="711" on="1"/>
        <pt x="245" y="711" on="0"/>
        <pt x="303" y="687" on="0"/>
        <pt x="339" y="633" on="0"/>
        <pt x="355" y="544" on="0"/>
        <pt x="355" y="479" on="1"/>
        <pt x="316" y="479" on="1"/>
        <pt x="316" y="547" on="0"/>
        <pt x="298" y="632" on="0"/>
        <pt x="249" y="673" on="0"/>
        <pt x="201" y="673" on="1"/>
        <pt x="196" y="673" on="1"/>
        <pt x="157" y="673" on="0"/>
        <pt x="108" y="641" on="0"/>
        <pt x="85" y="588" on="0"/>
        <pt x="85" y="557" on="1"/>
        <pt x="85" y="526" on="0"/>
        <pt x="99" y="470" on="0"/>
        <pt x="135" y="421" on="0"/>
        <pt x="168" y="398" on="1"/>
        <pt x="226" y="358" on="1"/>
        <pt x="258" y="336" on="0"/>
        <pt x="307" y="291" on="0"/>
        <pt x="340" y="242" on="0"/>
        <pt x="358" y="187" on="0"/>
      </contour>
    </TTGlyph>
    <TTGlyph name="T" xMin="30" yMin="0" xMax="410" yMax="700">
      <contour>
        <pt x="200" y="0" on="1"/>
        <pt x="200" y="700" on="1"/>
        <pt x="240" y="700" on="1"/>
        <pt x="240" y="0" on="1"/>
      </contour>
      <contour>
        <pt x="30" y="664" on="1"/>
        <pt x="30" y="700" on="1"/>
        <pt x="410" y="700" on="1"/>
        <pt x="410" y="664" on="1"/>
      </contour>
    </TTGlyph>
    <TTGlyph name="U" xMin="60" yMin="-10" xMax="403" yMax="700">
      <contour>
        <pt x="232" y="-10" on="1"/>
        <pt x="178" y="-10" on="0"/>
        <pt x="101" y="26" on="0"/>
        <pt x="60" y="110" on="0"/>
        <pt x="60" y="182" on="1"/>
        <pt x="60" y="700" on="1"/>
        <pt x="100" y="700" on="1"/>
        <pt x="100" y="182" on="1"/>
        <pt x="100" y="121" on="0"/>
        <pt x="132" y="53" on="0"/>
        <pt x="192" y="26" on="0"/>
        <pt x="232" y="26" on="1"/>
        <pt x="273" y="26" on="0"/>
        <pt x="331" y="53" on="0"/>
        <pt x="363" y="121" on="0"/>
        <pt x="363" y="182" on="1"/>
        <pt x="363" y="700" on="1"/>
        <pt x="403" y="700" on="1"/>
        <pt x="403" y="182" on="1"/>
        <pt x="403" y="110" on="0"/>
        <pt x="362" y="26" on="0"/>
        <pt x="285" y="-10" on="0"/>
      </contour>
    </TTGlyph>
    <TTGlyph name="V" xMin="20" yMin="0" xMax="378" yMax="700">
      <contour>
        <pt x="378" y="700" on="1"/>
        <pt x="243" y="0" on="1"/>
        <pt x="207" y="0" on="1"/>
        <pt x="337" y="700" on="1"/>
      </contour>
      <contour>
        <pt x="65" y="700" on="1"/>
        <pt x="195" y="0" on="1"/>
        <pt x="155" y="0" on="1"/>
        <pt x="20" y="700" on="1"/>
      </contour>
      <contour>
        <pt x="235" y="39" on="1"/>
        <pt x="235" y="0" on="1"/>
        <pt x="165" y="0" on="1"/>
        <pt x="165" y="39" on="1"/>
      </contour>
    </TTGlyph>
    <TTGlyph name="W" xMin="22" yMin="0" xMax="500" yMax="700">
      <contour>
        <pt x="500" y="700" on="1"/>
        <pt x="393" y="0" on="1"/>
        <pt x="348" y="0" on="1"/>
        <pt x="253" y="639" on="1"/>
        <pt x="263" y="639" on="1"/>
        <pt x="174" y="0" on="1"/>
        <pt x="129" y="0" on="1"/>
        <pt x="22" y="700" on="1"/>
        <pt x="65" y="700" on="1"/>
        <pt x="158" y="62" on="1"/>
        <pt x="150" y="62" on="1"/>
        <pt x="245" y="700" on="1"/>
        <pt x="283" y="700" on="1"/>
        <pt x="377" y="62" on="1"/>
        <pt x="371" y="62" on="1"/>
        <pt x="458" y="700" on="1"/>
      </contour>
    </TTGlyph>
    <TTGlyph name="X" xMin="20" yMin="0" xMax="382" yMax="700">
      <contour>
        <pt x="337" y="0" on="1"/>
        <pt x="187" y="337" on="1"/>
        <pt x="27" y="700" on="1"/>
        <pt x="72" y="700" on="1"/>
        <pt x="213" y="364" on="1"/>
        <pt x="382" y="0" on="1"/>
      </contour>
      <contour>
        <pt x="20" y="0" on="1"/>
        <pt x="184" y="357" on="1"/>
        <pt x="200" y="363" on="1"/>
        <pt x="330" y="700" on="1"/>
        <pt x="370" y="700" on="1"/>
        <pt x="215" y="336" on="1"/>
        <pt x="202" y="332" on="1"/>
        <pt x="60" y="0" on="1"/>
      </contour>
    </TTGlyph>
    <TTGlyph name="Y" xMin="20" yMin="0" xMax="400" yMax="700">
      <contour>
        <pt x="400" y="700" on="1"/>
        <pt x="230" y="210" on="1"/>
        <pt x="205" y="210" on="1"/>
        <pt x="359" y="700" on="1"/>
      </contour>
      <contour>
        <pt x="67" y="700" on="1"/>
        <pt x="228" y="210" on="1"/>
        <pt x="190" y="210" on="1"/>
        <pt x="20" y="700" on="1"/>
      </contour>
      <contour>
        <pt x="230" y="254" on="1"/>
        <pt x="230" y="0" on="1"/>
        <pt x="190" y="0" on="1"/>
        <pt x="190" y="254" on="1"/>
      </contour>
    </TTGlyph>
    <TTGlyph name="Z" xMin="60" yMin="0" xMax="380" yMax="700">
      <contour>
        <pt x="60" y="36" on="1"/>
        <pt x="345" y="674" on="1"/>
        <pt x="380" y="664" on="1"/>
        <pt x="95" y="26" on="1"/>
      </contour>
      <contour>
        <pt x="60" y="664" on="1"/>
        <pt x="60" y="700" on="1"/>
        <pt x="380" y="700" on="1"/>
        <pt x="380" y="664" on="1"/>
      </contour>
      <contour>
        <pt x="60" y="0" on="1"/>
        <pt x="60" y="36" on="1"/>
        <pt x="380" y="36" on="1"/>
        <pt x="380" y="0" on="1"/>
      </contour>
    </TTGlyph>
    <TTGlyph name="acute" xMin="50" yMin="730" xMax="200" yMax="770">
      <contour>
        <pt x="50" y="730" on="1"/>
        <pt x="50" y="760" on="1"/>
        <pt x="200" y="770" on="1"/>
        <pt x="200" y="738" on="1"/>
      </contour>
    </TTGlyph>
    <TTGlyph name="arrowdown" xMin="100" yMin="140" xMax="202" yMax="540">
      <contour>
        <pt x="137" y="271" on="1"/>
        <pt x="131" y="540" on="1"/>
        <pt x="172" y="540" on="1"/>
        <pt x="166" y="271" on="1"/>
      </contour>
      <contour>
        <pt x="100" y="330" on="1"/>
        <pt x="202" y="329" on="1"/>
        <pt x="152" y="140" on="1"/>
      </contour>
    </TTGlyph>
    <TTGlyph name="arrowleft" xMin="5" yMin="306" xMax="559" yMax="408">
      <contour>
        <pt x="136" y="371" on="1"/>
        <pt x="559" y="377" on="1"/>
        <pt x="559" y="336" on="1"/>
        <pt x="136" y="342" on="1"/>
      </contour>
      <contour>
        <pt x="195" y="408" on="1"/>
        <pt x="194" y="306" on="1"/>
        <pt x="5" y="356" on="1"/>
      </contour>
    </TTGlyph>
    <TTGlyph name="arrowright" xMin="10" yMin="308" xMax="439" yMax="410">
      <contour>
        <pt x="308" y="345" on="1"/>
        <pt x="10" y="339" on="1"/>
        <pt x="10" y="380" on="1"/>
        <pt x="308" y="374" on="1"/>
      </contour>
      <contour>
        <pt x="249" y="308" on="1"/>
        <pt x="250" y="410" on="1"/>
        <pt x="439" y="360" on="1"/>
      </contour>
    </TTGlyph>
    <TTGlyph name="arrowup" xMin="100" yMin="140" xMax="202" yMax="540">
      <contour>
        <pt x="165" y="409" on="1"/>
        <pt x="171" y="140" on="1"/>
        <pt x="130" y="140" on="1"/>
        <pt x="136" y="409" on="1"/>
      </contour>
      <contour>
        <pt x="202" y="350" on="1"/>
        <pt x="100" y="351" on="1"/>
        <pt x="150" y="540" on="1"/>
      </contour>
    </TTGlyph>
    <TTGlyph name="colon" xMin="60" yMin="0" xMax="110" yMax="480">
      <component glyphName="period" x="0" y="0" flags="0x204"/>
      <component glyphName="period" x="0" y="360" flags="0x4"/>
    </TTGlyph>
    <TTGlyph name="comma" xMin="60" yMin="-95" xMax="111" yMax="120">
      <contour>
        <pt x="111" y="0" on="1"/>
        <pt x="72" y="-95" on="1"/>
        <pt x="60" y="-93" on="1"/>
        <pt x="82" y="12" on="1"/>
        <pt x="93" y="-8" on="1"/>
        <pt x="61" y="0" on="1"/>
        <pt x="61" y="120" on="1"/>
        <pt x="111" y="120" on="1"/>
      </contour>
    </TTGlyph>
    <TTGlyph name="dieresis" xMin="50" yMin="720" xMax="170" yMax="780">
      <component glyphName="dot" x="0" y="-10" flags="0x4"/>
      <component glyphName="dot" x="80" y="-10" flags="0x4"/>
    </TTGlyph>
    <TTGlyph name="dot" xMin="50" yMin="730" xMax="90" yMax="790">
      <contour>
        <pt x="50" y="730" on="1"/>
        <pt x="50" y="790" on="1"/>
        <pt x="90" y="790" on="1"/>
        <pt x="90" y="730" on="1"/>
      </contour>
    </TTGlyph>
    <TTGlyph name="nlitest" xMin="0" yMin="0" xMax="50" yMax="750">
      <contour>
        <pt x="0" y="50" on="1"/>
        <pt x="0" y="750" on="1"/>
        <pt x="50" y="0" on="1"/>
        <pt x="0" y="0" on="1"/>
      </contour>
    </TTGlyph>
    <TTGlyph name="period" xMin="60" yMin="0" xMax="110" yMax="120">
      <contour>
        <pt x="60" y="0" on="1"/>
        <pt x="60" y="120" on="1"/>
        <pt x="110" y="120" on="1"/>
        <pt x="110" y="0" on="1"/>
      </contour>
    </TTGlyph>
    <TTGlyph name="quotedblbase" xMin="60" yMin="-95" xMax="241" yMax="120">
      <component glyphName="comma" x="0" y="0" flags="0x4"/>
      <component glyphName="comma" x="130" y="0" flags="0x4"/>
    </TTGlyph>
    <TTGlyph name="quotedblleft" xMin="60" yMin="487" xMax="241" yMax="702">
      <component glyphName="comma" x="171" y="607" scale="-1.0" flags="0x4"/>
      <component glyphName="comma" x="301" y="607" scale="-1.0" flags="0x4"/>
    </TTGlyph>
    <TTGlyph name="quotedblright" xMin="60" yMin="485" xMax="241" yMax="700">
      <component glyphName="comma" x="0" y="580" flags="0x4"/>
      <component glyphName="comma" x="130" y="580" flags="0x4"/>
    </TTGlyph>
    <TTGlyph name="quotesinglbase" xMin="60" yMin="-95" xMax="111" yMax="120">
      <component glyphName="comma" x="0" y="0" flags="0x204"/>
    </TTGlyph>
    <TTGlyph name="semicolon" xMin="60" yMin="-95" xMax="111" yMax="480">
      <component glyphName="comma" x="0" y="0" flags="0x204"/>
      <component glyphName="period" x="0" y="360" flags="0x4"/>
    </TTGlyph>
    <TTGlyph name="varcotest2" xMin="70" yMin="278" xMax="379" yMax="664">
      <contour>
        <pt x="70" y="278" on="1"/>
        <pt x="70" y="588" on="1"/>
        <pt x="204" y="588" on="1"/>
        <pt x="204" y="664" on="1"/>
        <pt x="379" y="664" on="1"/>
        <pt x="379" y="380" on="1"/>
        <pt x="309" y="380" on="1"/>
        <pt x="309" y="278" on="1"/>
      </contour>
    </TTGlyph>
</ttFont>
